<mxfile host="Electron" modified="2023-06-10T10:50:56.479Z" agent="Mozilla/5.0 (Macintosh; Intel Mac OS X 10_15_7) AppleWebKit/537.36 (KHTML, like Gecko) draw.io/21.3.7 Chrome/112.0.5615.204 Electron/24.5.0 Safari/537.36" etag="a0MdfHbaj9usazNaR6ik" version="21.3.7" type="device" pages="2">
  <diagram name="file locali" id="3hGKEEta10mfcVxAHoHe">
    <mxGraphModel dx="1026" dy="663" grid="1" gridSize="10" guides="1" tooltips="1" connect="1" arrows="1" fold="1" page="1" pageScale="1" pageWidth="827" pageHeight="1169" math="0" shadow="0">
      <root>
        <mxCell id="0" />
        <mxCell id="1" parent="0" />
        <mxCell id="XTUAecjlCWOi9ReUw6i1-1" value="Utente" style="shape=umlActor;verticalLabelPosition=bottom;verticalAlign=top;html=1;" parent="1" vertex="1">
          <mxGeometry x="44" y="230" width="30" height="60" as="geometry" />
        </mxCell>
        <mxCell id="XTUAecjlCWOi9ReUw6i1-3" value="Article Analyzer" style="swimlane;whiteSpace=wrap;html=1;" parent="1" vertex="1">
          <mxGeometry x="124" y="40" width="650" height="440" as="geometry">
            <mxRectangle x="170" y="40" width="130" height="30" as="alternateBounds" />
          </mxGeometry>
        </mxCell>
        <mxCell id="XTUAecjlCWOi9ReUw6i1-5" value="Ricerca da file" style="ellipse;whiteSpace=wrap;html=1;" parent="XTUAecjlCWOi9ReUw6i1-3" vertex="1">
          <mxGeometry x="70" y="195" width="140" height="70" as="geometry" />
        </mxCell>
        <mxCell id="XTUAecjlCWOi9ReUw6i1-9" value="Verifica input" style="ellipse;whiteSpace=wrap;html=1;" parent="XTUAecjlCWOi9ReUw6i1-3" vertex="1">
          <mxGeometry x="330" y="80" width="140" height="70" as="geometry" />
        </mxCell>
        <mxCell id="XTUAecjlCWOi9ReUw6i1-10" value="&amp;lt;&amp;lt;include&amp;gt;&amp;gt;" style="endArrow=open;endSize=12;dashed=1;html=1;rounded=0;exitX=1;exitY=0;exitDx=0;exitDy=0;entryX=0;entryY=1;entryDx=0;entryDy=0;" parent="XTUAecjlCWOi9ReUw6i1-3" source="XTUAecjlCWOi9ReUw6i1-5" target="XTUAecjlCWOi9ReUw6i1-9" edge="1">
          <mxGeometry width="160" relative="1" as="geometry">
            <mxPoint x="160" y="180" as="sourcePoint" />
            <mxPoint x="230" y="200" as="targetPoint" />
          </mxGeometry>
        </mxCell>
        <mxCell id="oC5YKYL8yRnIR4rRalR6-2" value="Estrai e visualizza&lt;br&gt;termini piÃ¹ importanti" style="ellipse;whiteSpace=wrap;html=1;" parent="XTUAecjlCWOi9ReUw6i1-3" vertex="1">
          <mxGeometry x="330" y="290" width="140" height="70" as="geometry" />
        </mxCell>
        <mxCell id="oC5YKYL8yRnIR4rRalR6-3" value="Verifica presenza blacklist" style="ellipse;whiteSpace=wrap;html=1;" parent="XTUAecjlCWOi9ReUw6i1-3" vertex="1">
          <mxGeometry x="70" y="80" width="140" height="70" as="geometry" />
        </mxCell>
        <mxCell id="oC5YKYL8yRnIR4rRalR6-6" value="&amp;lt;&amp;lt;include&amp;gt;&amp;gt;" style="endArrow=open;endSize=12;dashed=1;html=1;rounded=0;exitX=0.5;exitY=1;exitDx=0;exitDy=0;entryX=0.5;entryY=0;entryDx=0;entryDy=0;" parent="XTUAecjlCWOi9ReUw6i1-3" source="XTUAecjlCWOi9ReUw6i1-9" target="oC5YKYL8yRnIR4rRalR6-2" edge="1">
          <mxGeometry width="160" relative="1" as="geometry">
            <mxPoint x="359" y="245" as="sourcePoint" />
            <mxPoint x="430" y="220" as="targetPoint" />
            <Array as="points">
              <mxPoint x="400" y="220" />
            </Array>
          </mxGeometry>
        </mxCell>
        <mxCell id="oC5YKYL8yRnIR4rRalR6-7" value="&amp;lt;&amp;lt;extend&amp;gt;&amp;gt;" style="endArrow=open;endSize=12;dashed=1;html=1;rounded=0;exitX=1;exitY=0.5;exitDx=0;exitDy=0;entryX=0;entryY=0.5;entryDx=0;entryDy=0;" parent="XTUAecjlCWOi9ReUw6i1-3" source="oC5YKYL8yRnIR4rRalR6-3" target="XTUAecjlCWOi9ReUw6i1-9" edge="1">
          <mxGeometry width="160" relative="1" as="geometry">
            <mxPoint x="160" y="300" as="sourcePoint" />
            <mxPoint x="320" y="300" as="targetPoint" />
          </mxGeometry>
        </mxCell>
        <mxCell id="LJG7AM5HanCOoMwuTI5K-1" value="Da file di backlog" style="ellipse;whiteSpace=wrap;html=1;" parent="XTUAecjlCWOi9ReUw6i1-3" vertex="1">
          <mxGeometry x="172" y="340" width="140" height="70" as="geometry" />
        </mxCell>
        <mxCell id="LJG7AM5HanCOoMwuTI5K-2" value="Da sorgente CSV" style="ellipse;whiteSpace=wrap;html=1;" parent="XTUAecjlCWOi9ReUw6i1-3" vertex="1">
          <mxGeometry x="172" y="260" width="140" height="70" as="geometry" />
        </mxCell>
        <mxCell id="LJG7AM5HanCOoMwuTI5K-3" value="" style="endArrow=block;endSize=10;endFill=0;shadow=0;strokeWidth=1;rounded=0;edgeStyle=elbowEdgeStyle;elbow=vertical;entryX=0.5;entryY=1;entryDx=0;entryDy=0;exitX=0;exitY=0.5;exitDx=0;exitDy=0;" parent="XTUAecjlCWOi9ReUw6i1-3" source="LJG7AM5HanCOoMwuTI5K-1" target="XTUAecjlCWOi9ReUw6i1-5" edge="1">
          <mxGeometry width="160" relative="1" as="geometry">
            <mxPoint x="225" y="560" as="sourcePoint" />
            <mxPoint x="130" y="265" as="targetPoint" />
            <Array as="points">
              <mxPoint x="140" y="375" />
            </Array>
          </mxGeometry>
        </mxCell>
        <mxCell id="LJG7AM5HanCOoMwuTI5K-4" value="" style="endArrow=block;endSize=10;endFill=0;shadow=0;strokeWidth=1;rounded=0;edgeStyle=elbowEdgeStyle;elbow=vertical;entryX=0.5;entryY=1;entryDx=0;entryDy=0;exitX=0;exitY=0.5;exitDx=0;exitDy=0;" parent="XTUAecjlCWOi9ReUw6i1-3" source="LJG7AM5HanCOoMwuTI5K-2" target="XTUAecjlCWOi9ReUw6i1-5" edge="1">
          <mxGeometry width="160" relative="1" as="geometry">
            <mxPoint x="190" y="385" as="sourcePoint" />
            <mxPoint x="130" y="265" as="targetPoint" />
            <Array as="points">
              <mxPoint x="150" y="295" />
            </Array>
          </mxGeometry>
        </mxCell>
        <mxCell id="LJG7AM5HanCOoMwuTI5K-5" value="&amp;lt;&amp;lt;extend&amp;gt;&amp;gt;" style="endArrow=open;endSize=12;dashed=1;html=1;rounded=0;exitX=1;exitY=0;exitDx=0;exitDy=0;entryX=0;entryY=1;entryDx=0;entryDy=0;" parent="XTUAecjlCWOi9ReUw6i1-3" source="oC5YKYL8yRnIR4rRalR6-2" target="LJG7AM5HanCOoMwuTI5K-6" edge="1">
          <mxGeometry width="160" relative="1" as="geometry">
            <mxPoint x="520" y="324.5" as="sourcePoint" />
            <mxPoint x="500" y="250" as="targetPoint" />
          </mxGeometry>
        </mxCell>
        <mxCell id="LJG7AM5HanCOoMwuTI5K-6" value="Salva i risultati" style="ellipse;whiteSpace=wrap;html=1;" parent="XTUAecjlCWOi9ReUw6i1-3" vertex="1">
          <mxGeometry x="480" y="170" width="140" height="70" as="geometry" />
        </mxCell>
        <mxCell id="XTUAecjlCWOi9ReUw6i1-14" value="" style="endArrow=none;html=1;rounded=0;entryX=0;entryY=0.5;entryDx=0;entryDy=0;" parent="1" target="XTUAecjlCWOi9ReUw6i1-5" edge="1">
          <mxGeometry width="50" height="50" relative="1" as="geometry">
            <mxPoint x="74" y="270" as="sourcePoint" />
            <mxPoint x="194.00000000000017" y="270" as="targetPoint" />
          </mxGeometry>
        </mxCell>
      </root>
    </mxGraphModel>
  </diagram>
  <diagram id="SxmXeOd1rtizV5fMSVPj" name="API">
    <mxGraphModel dx="1026" dy="663" grid="1" gridSize="10" guides="1" tooltips="1" connect="1" arrows="1" fold="1" page="1" pageScale="1" pageWidth="827" pageHeight="1169" math="0" shadow="0">
      <root>
        <mxCell id="0" />
        <mxCell id="1" parent="0" />
        <mxCell id="Seb62v4Z76DbfkRol8pr-1" value="Utente" style="shape=umlActor;verticalLabelPosition=bottom;verticalAlign=top;html=1;" parent="1" vertex="1">
          <mxGeometry x="6" y="230" width="30" height="60" as="geometry" />
        </mxCell>
        <mxCell id="Seb62v4Z76DbfkRol8pr-2" value="Article Analyzer" style="swimlane;whiteSpace=wrap;html=1;" parent="1" vertex="1">
          <mxGeometry x="86" y="40" width="664" height="440" as="geometry">
            <mxRectangle x="170" y="40" width="130" height="30" as="alternateBounds" />
          </mxGeometry>
        </mxCell>
        <mxCell id="Seb62v4Z76DbfkRol8pr-3" value="Ricerca da API" style="ellipse;whiteSpace=wrap;html=1;" parent="Seb62v4Z76DbfkRol8pr-2" vertex="1">
          <mxGeometry x="70" y="195" width="140" height="70" as="geometry" />
        </mxCell>
        <mxCell id="Seb62v4Z76DbfkRol8pr-4" value="Verifica input" style="ellipse;whiteSpace=wrap;html=1;" parent="Seb62v4Z76DbfkRol8pr-2" vertex="1">
          <mxGeometry x="330" y="80" width="140" height="70" as="geometry" />
        </mxCell>
        <mxCell id="Seb62v4Z76DbfkRol8pr-5" value="&amp;lt;&amp;lt;include&amp;gt;&amp;gt;" style="endArrow=open;endSize=12;dashed=1;html=1;rounded=0;exitX=1;exitY=0;exitDx=0;exitDy=0;entryX=0;entryY=1;entryDx=0;entryDy=0;" parent="Seb62v4Z76DbfkRol8pr-2" source="Seb62v4Z76DbfkRol8pr-3" target="Seb62v4Z76DbfkRol8pr-4" edge="1">
          <mxGeometry width="160" relative="1" as="geometry">
            <mxPoint x="160" y="180" as="sourcePoint" />
            <mxPoint x="230" y="200" as="targetPoint" />
          </mxGeometry>
        </mxCell>
        <mxCell id="Seb62v4Z76DbfkRol8pr-6" value="Scarica articoli" style="ellipse;whiteSpace=wrap;html=1;" parent="Seb62v4Z76DbfkRol8pr-2" vertex="1">
          <mxGeometry x="226" y="300" width="140" height="70" as="geometry" />
        </mxCell>
        <mxCell id="Seb62v4Z76DbfkRol8pr-7" value="Verifica presenza blacklist" style="ellipse;whiteSpace=wrap;html=1;" parent="Seb62v4Z76DbfkRol8pr-2" vertex="1">
          <mxGeometry x="70" y="80" width="140" height="70" as="geometry" />
        </mxCell>
        <mxCell id="Seb62v4Z76DbfkRol8pr-8" value="&amp;lt;&amp;lt;include&amp;gt;&amp;gt;" style="endArrow=open;endSize=12;dashed=1;html=1;rounded=0;exitX=0.5;exitY=1;exitDx=0;exitDy=0;entryX=0.5;entryY=0;entryDx=0;entryDy=0;" parent="Seb62v4Z76DbfkRol8pr-2" source="Seb62v4Z76DbfkRol8pr-4" target="Seb62v4Z76DbfkRol8pr-6" edge="1">
          <mxGeometry width="160" relative="1" as="geometry">
            <mxPoint x="359" y="245" as="sourcePoint" />
            <mxPoint x="430" y="220" as="targetPoint" />
            <Array as="points" />
          </mxGeometry>
        </mxCell>
        <mxCell id="Seb62v4Z76DbfkRol8pr-9" value="&amp;lt;&amp;lt;extend&amp;gt;&amp;gt;" style="endArrow=open;endSize=12;dashed=1;html=1;rounded=0;exitX=1;exitY=0.5;exitDx=0;exitDy=0;entryX=0;entryY=0.5;entryDx=0;entryDy=0;" parent="Seb62v4Z76DbfkRol8pr-2" source="Seb62v4Z76DbfkRol8pr-7" target="Seb62v4Z76DbfkRol8pr-4" edge="1">
          <mxGeometry width="160" relative="1" as="geometry">
            <mxPoint x="160" y="300" as="sourcePoint" />
            <mxPoint x="320" y="300" as="targetPoint" />
          </mxGeometry>
        </mxCell>
        <mxCell id="Seb62v4Z76DbfkRol8pr-14" value="&amp;lt;&amp;lt;extend&amp;gt;&amp;gt;" style="endArrow=open;endSize=12;dashed=1;html=1;rounded=0;exitX=0.5;exitY=0;exitDx=0;exitDy=0;entryX=0.5;entryY=1;entryDx=0;entryDy=0;" parent="Seb62v4Z76DbfkRol8pr-2" source="Seb62v4Z76DbfkRol8pr-17" target="Seb62v4Z76DbfkRol8pr-15" edge="1">
          <mxGeometry width="160" relative="1" as="geometry">
            <mxPoint x="520" y="324.5" as="sourcePoint" />
            <mxPoint x="500" y="250" as="targetPoint" />
          </mxGeometry>
        </mxCell>
        <mxCell id="Seb62v4Z76DbfkRol8pr-15" value="Salva i risultati" style="ellipse;whiteSpace=wrap;html=1;" parent="Seb62v4Z76DbfkRol8pr-2" vertex="1">
          <mxGeometry x="496" y="80" width="140" height="70" as="geometry" />
        </mxCell>
        <mxCell id="Seb62v4Z76DbfkRol8pr-17" value="Estrai e visualizza&lt;br&gt;termini piÃ¹ importanti" style="ellipse;whiteSpace=wrap;html=1;" parent="Seb62v4Z76DbfkRol8pr-2" vertex="1">
          <mxGeometry x="496" y="230" width="140" height="70" as="geometry" />
        </mxCell>
        <mxCell id="Seb62v4Z76DbfkRol8pr-18" value="&amp;lt;&amp;lt;include&amp;gt;&amp;gt;" style="endArrow=open;endSize=12;dashed=1;html=1;rounded=0;exitX=1;exitY=0.5;exitDx=0;exitDy=0;entryX=0;entryY=0.5;entryDx=0;entryDy=0;" parent="Seb62v4Z76DbfkRol8pr-2" source="Seb62v4Z76DbfkRol8pr-6" target="Seb62v4Z76DbfkRol8pr-17" edge="1">
          <mxGeometry width="160" relative="1" as="geometry">
            <mxPoint x="410" y="160" as="sourcePoint" />
            <mxPoint x="306" y="310" as="targetPoint" />
            <Array as="points" />
          </mxGeometry>
        </mxCell>
        <mxCell id="Seb62v4Z76DbfkRol8pr-16" value="" style="endArrow=none;html=1;rounded=0;entryX=0;entryY=0.5;entryDx=0;entryDy=0;" parent="1" target="Seb62v4Z76DbfkRol8pr-3" edge="1">
          <mxGeometry width="50" height="50" relative="1" as="geometry">
            <mxPoint x="36" y="270" as="sourcePoint" />
            <mxPoint x="156.00000000000017" y="270" as="targetPoint" />
          </mxGeometry>
        </mxCell>
        <mxCell id="OCZp45b0hOVZiMK6C8c8-1" value="API" style="shape=umlActor;verticalLabelPosition=bottom;verticalAlign=top;html=1;" vertex="1" parent="1">
          <mxGeometry x="770" y="230" width="30" height="60" as="geometry" />
        </mxCell>
        <mxCell id="OCZp45b0hOVZiMK6C8c8-2" value="" style="endArrow=none;html=1;rounded=0;exitX=1;exitY=0.5;exitDx=0;exitDy=0;" edge="1" parent="1" source="Seb62v4Z76DbfkRol8pr-6" target="OCZp45b0hOVZiMK6C8c8-1">
          <mxGeometry width="50" height="50" relative="1" as="geometry">
            <mxPoint x="390" y="370" as="sourcePoint" />
            <mxPoint x="760" y="375" as="targetPoint" />
            <Array as="points">
              <mxPoint x="690" y="375" />
            </Array>
          </mxGeometry>
        </mxCell>
      </root>
    </mxGraphModel>
  </diagram>
</mxfile>
